<mxfile host="app.diagrams.net" modified="2024-05-03T07:37:18.654Z" agent="Mozilla/5.0 (Windows NT 10.0; Win64; x64) AppleWebKit/537.36 (KHTML, like Gecko) Chrome/124.0.0.0 Safari/537.36" etag="wWP7s62U2Xj6KjHxnbIy" version="24.3.1" type="device">
  <diagram id="eR1Zb5RVLTV1uuEW3yPG" name="Page-1">
    <mxGraphModel dx="880" dy="2814" grid="1" gridSize="10" guides="1" tooltips="1" connect="1" arrows="1" fold="1" page="1" pageScale="1" pageWidth="827" pageHeight="1169" math="0" shadow="0">
      <root>
        <mxCell id="0" />
        <mxCell id="1" parent="0" />
        <mxCell id="NN8kFv3UxyB4Z3Qv7Q7P-32" style="edgeStyle=orthogonalEdgeStyle;rounded=0;orthogonalLoop=1;jettySize=auto;html=1;exitX=1;exitY=0.5;exitDx=0;exitDy=0;entryX=0.5;entryY=0;entryDx=0;entryDy=0;" parent="1" edge="1">
          <mxGeometry relative="1" as="geometry">
            <mxPoint x="560" y="400" as="sourcePoint" />
          </mxGeometry>
        </mxCell>
        <mxCell id="NN8kFv3UxyB4Z3Qv7Q7P-39" style="edgeStyle=orthogonalEdgeStyle;rounded=0;orthogonalLoop=1;jettySize=auto;html=1;exitX=0;exitY=0.5;exitDx=0;exitDy=0;entryX=0;entryY=0;entryDx=40;entryDy=0;entryPerimeter=0;" parent="1" edge="1">
          <mxGeometry relative="1" as="geometry">
            <mxPoint x="480" y="400" as="sourcePoint" />
          </mxGeometry>
        </mxCell>
        <mxCell id="NN8kFv3UxyB4Z3Qv7Q7P-33" style="edgeStyle=orthogonalEdgeStyle;rounded=0;orthogonalLoop=1;jettySize=auto;html=1;exitX=1;exitY=0.5;exitDx=0;exitDy=0;" parent="1" edge="1">
          <mxGeometry relative="1" as="geometry">
            <mxPoint x="640" y="480" as="sourcePoint" />
          </mxGeometry>
        </mxCell>
        <mxCell id="NN8kFv3UxyB4Z3Qv7Q7P-38" style="edgeStyle=orthogonalEdgeStyle;rounded=0;orthogonalLoop=1;jettySize=auto;html=1;exitX=0;exitY=0.5;exitDx=0;exitDy=0;entryX=0;entryY=0;entryDx=40;entryDy=0;entryPerimeter=0;" parent="1" edge="1">
          <mxGeometry relative="1" as="geometry">
            <mxPoint x="560" y="480" as="sourcePoint" />
          </mxGeometry>
        </mxCell>
        <mxCell id="NN8kFv3UxyB4Z3Qv7Q7P-37" style="edgeStyle=orthogonalEdgeStyle;rounded=0;orthogonalLoop=1;jettySize=auto;html=1;exitX=0;exitY=0.5;exitDx=0;exitDy=0;entryX=0;entryY=0;entryDx=40;entryDy=0;entryPerimeter=0;" parent="1" edge="1">
          <mxGeometry relative="1" as="geometry">
            <mxPoint x="640" y="560" as="sourcePoint" />
          </mxGeometry>
        </mxCell>
        <mxCell id="NN8kFv3UxyB4Z3Qv7Q7P-41" style="edgeStyle=orthogonalEdgeStyle;rounded=0;orthogonalLoop=1;jettySize=auto;html=1;exitX=1;exitY=0.5;exitDx=0;exitDy=0;entryX=0;entryY=0;entryDx=40;entryDy=0;entryPerimeter=0;" parent="1" edge="1">
          <mxGeometry relative="1" as="geometry">
            <mxPoint x="720" y="560" as="sourcePoint" />
          </mxGeometry>
        </mxCell>
        <mxCell id="sSCpmMaVxi6PYTEObbiI-27" style="edgeStyle=orthogonalEdgeStyle;rounded=0;orthogonalLoop=1;jettySize=auto;html=1;exitX=1;exitY=0.5;exitDx=0;exitDy=0;entryX=0;entryY=0.5;entryDx=0;entryDy=0;" parent="1" edge="1">
          <mxGeometry relative="1" as="geometry">
            <Array as="points">
              <mxPoint x="220" y="600" />
              <mxPoint x="220" y="750" />
              <mxPoint x="40" y="750" />
              <mxPoint x="40" y="320" />
            </Array>
            <mxPoint x="100" y="320" as="targetPoint" />
          </mxGeometry>
        </mxCell>
        <mxCell id="ALeMZITsoDvyihv4cov3-10" style="edgeStyle=orthogonalEdgeStyle;rounded=0;orthogonalLoop=1;jettySize=auto;html=1;exitX=0.5;exitY=1;exitDx=0;exitDy=0;entryX=0.5;entryY=0;entryDx=0;entryDy=0;" edge="1" parent="1" source="lwcZz6v842X9FkbV30nD-1" target="ALeMZITsoDvyihv4cov3-9">
          <mxGeometry relative="1" as="geometry" />
        </mxCell>
        <mxCell id="lwcZz6v842X9FkbV30nD-1" value="InÃ­cio" style="ellipse;whiteSpace=wrap;html=1;" parent="1" vertex="1">
          <mxGeometry x="258" y="-1810" width="120" height="40" as="geometry" />
        </mxCell>
        <mxCell id="NFvZZmDYg6qZ6bP0rbpK-52" value="V" style="text;html=1;strokeColor=none;fillColor=none;align=center;verticalAlign=middle;whiteSpace=wrap;rounded=0;" parent="1" vertex="1">
          <mxGeometry x="280" y="-1189" width="30" height="20" as="geometry" />
        </mxCell>
        <mxCell id="fgQoKuZkV8or9lU69tf7-6" style="edgeStyle=orthogonalEdgeStyle;rounded=0;orthogonalLoop=1;jettySize=auto;html=1;exitX=0.5;exitY=1;exitDx=0;exitDy=0;entryX=0.5;entryY=0;entryDx=0;entryDy=0;" parent="1" source="fgQoKuZkV8or9lU69tf7-1" target="fgQoKuZkV8or9lU69tf7-3" edge="1">
          <mxGeometry relative="1" as="geometry" />
        </mxCell>
        <mxCell id="fgQoKuZkV8or9lU69tf7-1" value="strcmpi" style="shape=process;whiteSpace=wrap;html=1;backgroundOutline=1;" parent="1" vertex="1">
          <mxGeometry x="259" y="-1440" width="108" height="50" as="geometry" />
        </mxCell>
        <mxCell id="fgQoKuZkV8or9lU69tf7-8" style="edgeStyle=orthogonalEdgeStyle;rounded=0;orthogonalLoop=1;jettySize=auto;html=1;exitX=0.5;exitY=1;exitDx=0;exitDy=0;entryX=0.5;entryY=0;entryDx=0;entryDy=0;" parent="1" source="fgQoKuZkV8or9lU69tf7-2" target="fgQoKuZkV8or9lU69tf7-4" edge="1">
          <mxGeometry relative="1" as="geometry" />
        </mxCell>
        <mxCell id="fgQoKuZkV8or9lU69tf7-14" style="edgeStyle=orthogonalEdgeStyle;rounded=0;orthogonalLoop=1;jettySize=auto;html=1;exitX=1;exitY=0.5;exitDx=0;exitDy=0;entryX=1;entryY=0.75;entryDx=0;entryDy=0;" parent="1" source="fgQoKuZkV8or9lU69tf7-2" target="fgQoKuZkV8or9lU69tf7-13" edge="1">
          <mxGeometry relative="1" as="geometry" />
        </mxCell>
        <mxCell id="fgQoKuZkV8or9lU69tf7-2" value="tolower( a[i] ) &amp;lt;- tolower( b[i] ) &amp;amp;&amp;amp; a[i] != &#39;\0&#39;" style="rhombus;whiteSpace=wrap;html=1;" parent="1" vertex="1">
          <mxGeometry x="223" y="-1280" width="180" height="90" as="geometry" />
        </mxCell>
        <mxCell id="fgQoKuZkV8or9lU69tf7-7" style="edgeStyle=orthogonalEdgeStyle;rounded=0;orthogonalLoop=1;jettySize=auto;html=1;exitX=0.5;exitY=1;exitDx=0;exitDy=0;entryX=0.5;entryY=0;entryDx=0;entryDy=0;" parent="1" source="fgQoKuZkV8or9lU69tf7-3" target="fgQoKuZkV8or9lU69tf7-2" edge="1">
          <mxGeometry relative="1" as="geometry" />
        </mxCell>
        <mxCell id="fgQoKuZkV8or9lU69tf7-3" value="int i &amp;lt;- 0" style="rounded=0;whiteSpace=wrap;html=1;" parent="1" vertex="1">
          <mxGeometry x="259" y="-1350" width="108" height="33" as="geometry" />
        </mxCell>
        <mxCell id="fgQoKuZkV8or9lU69tf7-9" style="edgeStyle=orthogonalEdgeStyle;rounded=0;orthogonalLoop=1;jettySize=auto;html=1;exitX=0;exitY=0.5;exitDx=0;exitDy=0;entryX=0;entryY=0.5;entryDx=0;entryDy=0;" parent="1" source="fgQoKuZkV8or9lU69tf7-4" target="fgQoKuZkV8or9lU69tf7-2" edge="1">
          <mxGeometry relative="1" as="geometry" />
        </mxCell>
        <mxCell id="fgQoKuZkV8or9lU69tf7-4" value="i++" style="rounded=0;whiteSpace=wrap;html=1;" parent="1" vertex="1">
          <mxGeometry x="259" y="-1150" width="108" height="33" as="geometry" />
        </mxCell>
        <mxCell id="fgQoKuZkV8or9lU69tf7-15" style="edgeStyle=orthogonalEdgeStyle;rounded=0;orthogonalLoop=1;jettySize=auto;html=1;exitX=0;exitY=0.5;exitDx=0;exitDy=0;entryX=0;entryY=0.5;entryDx=0;entryDy=0;" parent="1" source="fgQoKuZkV8or9lU69tf7-13" target="fgQoKuZkV8or9lU69tf7-1" edge="1">
          <mxGeometry relative="1" as="geometry">
            <Array as="points">
              <mxPoint x="160" y="-1043" />
              <mxPoint x="160" y="-1415" />
            </Array>
          </mxGeometry>
        </mxCell>
        <mxCell id="fgQoKuZkV8or9lU69tf7-13" value="a[i] - b[i]" style="rounded=0;whiteSpace=wrap;html=1;" parent="1" vertex="1">
          <mxGeometry x="262" y="-1060" width="108" height="33" as="geometry" />
        </mxCell>
        <mxCell id="fgQoKuZkV8or9lU69tf7-16" value="Fim" style="ellipse;whiteSpace=wrap;html=1;" parent="1" vertex="1">
          <mxGeometry x="430" y="-1357" width="120" height="40" as="geometry" />
        </mxCell>
        <mxCell id="wsi5-25m1rzmmsr4iQMM-1" value="F" style="text;html=1;strokeColor=none;fillColor=none;align=center;verticalAlign=middle;whiteSpace=wrap;rounded=0;" parent="1" vertex="1">
          <mxGeometry x="403" y="-1260" width="30" height="20" as="geometry" />
        </mxCell>
        <mxCell id="ALeMZITsoDvyihv4cov3-1" value="Primeira palavra?" style="shape=display;whiteSpace=wrap;html=1;" vertex="1" parent="1">
          <mxGeometry x="280" y="-1630" width="80" height="40" as="geometry" />
        </mxCell>
        <mxCell id="ALeMZITsoDvyihv4cov3-3" value="n1" style="shape=manualInput;whiteSpace=wrap;html=1;" vertex="1" parent="1">
          <mxGeometry x="283" y="-1570" width="74" height="40" as="geometry" />
        </mxCell>
        <mxCell id="ALeMZITsoDvyihv4cov3-4" style="edgeStyle=orthogonalEdgeStyle;rounded=0;orthogonalLoop=1;jettySize=auto;html=1;exitX=0;exitY=0;exitDx=40;exitDy=40;exitPerimeter=0;entryX=0.473;entryY=0.25;entryDx=0;entryDy=0;entryPerimeter=0;" edge="1" parent="1" source="ALeMZITsoDvyihv4cov3-1" target="ALeMZITsoDvyihv4cov3-3">
          <mxGeometry relative="1" as="geometry" />
        </mxCell>
        <mxCell id="ALeMZITsoDvyihv4cov3-5" value="Segunda palavra?" style="shape=display;whiteSpace=wrap;html=1;" vertex="1" parent="1">
          <mxGeometry x="437" y="-1630" width="80" height="40" as="geometry" />
        </mxCell>
        <mxCell id="ALeMZITsoDvyihv4cov3-16" style="edgeStyle=orthogonalEdgeStyle;rounded=0;orthogonalLoop=1;jettySize=auto;html=1;exitX=0.5;exitY=1;exitDx=0;exitDy=0;entryX=1;entryY=0.5;entryDx=0;entryDy=0;" edge="1" parent="1" source="ALeMZITsoDvyihv4cov3-6" target="ALeMZITsoDvyihv4cov3-15">
          <mxGeometry relative="1" as="geometry" />
        </mxCell>
        <mxCell id="ALeMZITsoDvyihv4cov3-6" value="n2" style="shape=manualInput;whiteSpace=wrap;html=1;" vertex="1" parent="1">
          <mxGeometry x="440" y="-1570" width="74" height="40" as="geometry" />
        </mxCell>
        <mxCell id="ALeMZITsoDvyihv4cov3-7" style="edgeStyle=orthogonalEdgeStyle;rounded=0;orthogonalLoop=1;jettySize=auto;html=1;exitX=0;exitY=0;exitDx=40;exitDy=40;exitPerimeter=0;entryX=0.473;entryY=0.25;entryDx=0;entryDy=0;entryPerimeter=0;" edge="1" source="ALeMZITsoDvyihv4cov3-5" target="ALeMZITsoDvyihv4cov3-6" parent="1">
          <mxGeometry relative="1" as="geometry" />
        </mxCell>
        <mxCell id="ALeMZITsoDvyihv4cov3-8" style="edgeStyle=orthogonalEdgeStyle;rounded=0;orthogonalLoop=1;jettySize=auto;html=1;exitX=1;exitY=0.5;exitDx=0;exitDy=0;entryX=0;entryY=0.5;entryDx=0;entryDy=0;entryPerimeter=0;" edge="1" parent="1" source="ALeMZITsoDvyihv4cov3-3" target="ALeMZITsoDvyihv4cov3-5">
          <mxGeometry relative="1" as="geometry" />
        </mxCell>
        <mxCell id="ALeMZITsoDvyihv4cov3-13" style="edgeStyle=orthogonalEdgeStyle;rounded=0;orthogonalLoop=1;jettySize=auto;html=1;exitX=0.5;exitY=1;exitDx=0;exitDy=0;entryX=0.5;entryY=0;entryDx=0;entryDy=0;" edge="1" parent="1" source="ALeMZITsoDvyihv4cov3-9" target="ALeMZITsoDvyihv4cov3-12">
          <mxGeometry relative="1" as="geometry" />
        </mxCell>
        <mxCell id="ALeMZITsoDvyihv4cov3-9" value="int strcmpi( char a[], char b[] )" style="rounded=0;whiteSpace=wrap;html=1;" vertex="1" parent="1">
          <mxGeometry x="233" y="-1730" width="170" height="30" as="geometry" />
        </mxCell>
        <mxCell id="ALeMZITsoDvyihv4cov3-12" value="char n1[128], n2[128];" style="rounded=0;whiteSpace=wrap;html=1;" vertex="1" parent="1">
          <mxGeometry x="233" y="-1680" width="170" height="30" as="geometry" />
        </mxCell>
        <mxCell id="ALeMZITsoDvyihv4cov3-14" style="edgeStyle=orthogonalEdgeStyle;rounded=0;orthogonalLoop=1;jettySize=auto;html=1;exitX=0.5;exitY=1;exitDx=0;exitDy=0;entryX=0;entryY=0;entryDx=40;entryDy=0;entryPerimeter=0;" edge="1" parent="1" source="ALeMZITsoDvyihv4cov3-12" target="ALeMZITsoDvyihv4cov3-1">
          <mxGeometry relative="1" as="geometry" />
        </mxCell>
        <mxCell id="ALeMZITsoDvyihv4cov3-17" style="edgeStyle=orthogonalEdgeStyle;rounded=0;orthogonalLoop=1;jettySize=auto;html=1;exitX=0.5;exitY=1;exitDx=0;exitDy=0;entryX=0.5;entryY=0;entryDx=0;entryDy=0;" edge="1" parent="1" source="ALeMZITsoDvyihv4cov3-15" target="fgQoKuZkV8or9lU69tf7-1">
          <mxGeometry relative="1" as="geometry" />
        </mxCell>
        <mxCell id="ALeMZITsoDvyihv4cov3-15" value="int resultado &amp;lt;- strcmpi(n1, n2);" style="rounded=0;whiteSpace=wrap;html=1;" vertex="1" parent="1">
          <mxGeometry x="233" y="-1500" width="170" height="30" as="geometry" />
        </mxCell>
        <mxCell id="ALeMZITsoDvyihv4cov3-20" style="edgeStyle=orthogonalEdgeStyle;rounded=0;orthogonalLoop=1;jettySize=auto;html=1;exitX=0;exitY=0;exitDx=40;exitDy=40;exitPerimeter=0;" edge="1" parent="1" source="ALeMZITsoDvyihv4cov3-18">
          <mxGeometry relative="1" as="geometry">
            <mxPoint x="490" y="-1360" as="targetPoint" />
          </mxGeometry>
        </mxCell>
        <mxCell id="ALeMZITsoDvyihv4cov3-18" value="&quot;%d\n, resultado" style="shape=display;whiteSpace=wrap;html=1;" vertex="1" parent="1">
          <mxGeometry x="450" y="-1435" width="80" height="40" as="geometry" />
        </mxCell>
        <mxCell id="ALeMZITsoDvyihv4cov3-19" style="edgeStyle=orthogonalEdgeStyle;rounded=0;orthogonalLoop=1;jettySize=auto;html=1;exitX=1;exitY=0.5;exitDx=0;exitDy=0;entryX=0;entryY=0.5;entryDx=0;entryDy=0;entryPerimeter=0;" edge="1" parent="1" source="fgQoKuZkV8or9lU69tf7-1" target="ALeMZITsoDvyihv4cov3-18">
          <mxGeometry relative="1" as="geometry" />
        </mxCell>
      </root>
    </mxGraphModel>
  </diagram>
</mxfile>
